<?xml version="1.0" encoding="iso-8859-1"?>
<!-- Generator: Adobe Illustrator 19.0.0, SVG Export Plug-In . SVG Version: 6.00 Build 0)  -->
<svg version="1.1" id="Layer_1" xmlns="http://www.w3.org/2000/svg" xmlns:xlink="http://www.w3.org/1999/xlink" x="0px" y="0px"
	 viewBox="0 0 295.238 295.238" style="enable-background:new 0 0 295.238 295.238;" xml:space="preserve">
<g>
	<g>
		<path style="fill:#65c0ba;" d="M59.857,182.99c4.5,1.8,9.3,2.724,14.148,2.724h11.71c5.262,0,9.524,4.262,9.524,9.524
			c0,10.519,8.529,19.048,19.048,19.048s19.048-8.529,19.048-19.048v-13.324c0-9.638-4.381-18.748-11.905-24.771
			c-7.524-6.019-11.905-15.133-11.905-24.771V95.314c0-6.262-1.852-12.386-5.329-17.595l-13.72-20.576l-0.995-2.329
			c-30.857,19.371-51.386,53.681-51.386,92.805c0,9.757,1.295,19.21,3.686,28.214l1.076,0.357L59.857,182.99z"/>
		<path style="fill:#65c0ba;" d="M257.143,147.619c0-48.957-32.124-90.4-76.443-104.429l-24.51,32.681
			c-2.471,3.295-3.81,7.31-3.81,11.429v41.271c0,10.519,8.529,19.048,19.048,19.048h38.095c5.262,0,9.524-4.262,9.524-9.524
			c0-5.262,4.262-9.524,9.524-9.524c5.262,0,9.524,4.262,9.524,9.524v24.19c0,2.781-1.214,5.424-3.324,7.229l-26.681,22.871
			c-2.114,1.809-3.329,4.452-3.329,7.233v41.443C236.176,221.81,257.143,187.167,257.143,147.619z"/>
		<path style="fill:#333333;" d="M147.619,33.333c-63.014,0-114.286,51.271-114.286,114.286s51.271,114.286,114.286,114.286
			s114.286-51.271,114.286-114.286S210.633,33.333,147.619,33.333z M147.619,252.381c-57.767,0-104.762-46.995-104.762-104.762
			S89.852,42.857,147.619,42.857s104.762,46.995,104.762,104.762S205.386,252.381,147.619,252.381z"/>
		<path style="fill:#333333;" d="M275.409,73.805l-8.238,4.771c12.129,20.943,18.543,44.819,18.543,69.043
			c0,76.143-61.952,138.095-138.095,138.095S9.524,223.762,9.524,147.619S71.476,9.524,147.619,9.524
			c21.695,0,43.152,5.195,62.376,14.938c-0.29,1.324-0.471,2.695-0.471,4.11c0,10.505,8.543,19.048,19.048,19.048
			s19.048-8.543,19.048-19.048s-8.543-19.048-19.048-19.048c-5.671,0-10.71,2.538-14.205,6.481C193.795,5.567,170.829,0,147.619,0
			C66.219,0,0,66.219,0,147.619s66.219,147.619,147.619,147.619s147.619-66.219,147.619-147.619
			C295.238,121.724,288.386,96.195,275.409,73.805z M228.571,19.048c5.252,0,9.524,4.271,9.524,9.524s-4.271,9.524-9.524,9.524
			s-9.524-4.271-9.524-9.524S223.319,19.048,228.571,19.048z"/>
	</g>
</g>
<g>
</g>
<g>
</g>
<g>
</g>
<g>
</g>
<g>
</g>
<g>
</g>
<g>
</g>
<g>
</g>
<g>
</g>
<g>
</g>
<g>
</g>
<g>
</g>
<g>
</g>
<g>
</g>
<g>
</g>
</svg>
