<?xml version="1.0" encoding="iso-8859-1"?>
<!-- Generator: Adobe Illustrator 19.0.0, SVG Export Plug-In . SVG Version: 6.00 Build 0)  -->
<svg version="1.1" id="Layer_1" xmlns="http://www.w3.org/2000/svg" xmlns:xlink="http://www.w3.org/1999/xlink" x="0px" y="0px"
	 viewBox="0 0 295.239 295.239" style="enable-background:new 0 0 295.239 295.239;" xml:space="preserve">
<g>
	<g>
		<path style="fill:#65c0ba;" d="M261.905,97.619h-80.952c-18.376,0-33.333-14.957-33.333-33.333s14.957-33.333,33.333-33.333
			c1.824,0,3.638,0.148,5.429,0.443c6.638-17.29,23.381-29.014,42.19-29.014c19.014,0,36.114,12.148,42.529,29.867
			c14.143,4.048,24.138,17.09,24.138,32.038C295.238,82.662,280.281,97.619,261.905,97.619z"/>
		<path style="fill:#333333;" d="M288.486,157.967c-16.652-8.329-35.3-12.729-53.919-12.729h-60.043l-53.967-38.095H74.219
			l38.095,38.095H73.238l-42.857-38.095H2.195L21.062,149.6l-6.776,1.129v16.005l3.043,2.176
			c21.933,15.667,47.776,23.948,74.729,23.948h10.733L67.948,227.7l4.867,3.214c1.519,1.005,2.952,2.162,4.257,3.438l1.39,1.362
			h27.814l60.714-42.857h66.381c16.424,0,32.405-3.281,47.495-9.748l6.971-2.986c4.495-1.933,7.4-6.338,7.4-11.229
			C295.238,164.238,292.652,160.052,288.486,157.967z M97.209,116.667h20.329l40.476,28.571h-32.233L97.209,116.667z
			 M16.852,116.667h9.91l32.143,28.571h-6.557c-3.4,0-6.824,0.286-10.176,0.843l-11.405,1.9L16.852,116.667z M284.086,171.367
			l-6.971,2.986c-13.905,5.962-28.614,8.981-43.743,8.981h-52.89l7.981-5.633l-5.495-7.781l-79.714,56.271h-20.33l49.014-49.014
			l-6.733-6.733l-12.89,12.89H92.057c-24.567,0-48.138-7.433-68.248-21.505v-3.033l19.929-3.324c2.838-0.471,5.738-0.71,8.61-0.71
			h182.219c17.152,0,34.324,4.052,49.657,11.719c0.919,0.462,1.49,1.386,1.49,2.414
			C285.714,169.971,285.071,170.943,284.086,171.367z"/>
		<path style="fill:#65c0ba;" d="M85.714,292.857H28.571C12.814,292.857,0,280.043,0,264.286c0-13.99,10.3-25.838,23.91-28.081
			c6.695-11.952,19.452-19.538,33.233-19.538c18.105,0,33.61,12.805,37.257,30.257c9.048,3.529,15.124,12.214,15.124,22.124
			C109.524,282.176,98.843,292.857,85.714,292.857z"/>
		<rect x="161.905" y="245.238" style="fill:#333333;" width="95.238" height="9.524"/>
		<rect x="142.857" y="245.238" style="fill:#333333;" width="9.524" height="9.524"/>
		<rect x="42.857" y="35.714" style="fill:#333333;" width="76.19" height="9.524"/>
		<rect x="23.81" y="35.714" style="fill:#333333;" width="9.524" height="9.524"/>
		<rect x="23.81" y="59.524" style="fill:#333333;" width="71.429" height="9.524"/>
		<rect x="4.762" y="59.524" style="fill:#333333;" width="9.524" height="9.524"/>
	</g>
</g>
<g>
</g>
<g>
</g>
<g>
</g>
<g>
</g>
<g>
</g>
<g>
</g>
<g>
</g>
<g>
</g>
<g>
</g>
<g>
</g>
<g>
</g>
<g>
</g>
<g>
</g>
<g>
</g>
<g>
</g>
</svg>
