<?xml version="1.0" encoding="iso-8859-1"?>
<!-- Generator: Adobe Illustrator 19.0.0, SVG Export Plug-In . SVG Version: 6.00 Build 0)  -->
<svg version="1.1" id="Layer_1" xmlns="http://www.w3.org/2000/svg" xmlns:xlink="http://www.w3.org/1999/xlink" x="0px" y="0px"
	 viewBox="0 0 295.239 295.239" style="enable-background:new 0 0 295.239 295.239;" xml:space="preserve">
<g>
	<g>
		<path style="fill:#333333;" d="M273.809,66.567l-9.524,0.205l1.519,71.324h-22.081l1.514-71.329l-9.524-0.205l-4.662,219.152
			h-34.371l-7.41-33.333h13.109v-9.524h-14.286v-9.524c0-7.519-4.414-13.976-10.757-17.071l28.971-42.138l-7.848-5.395
			l-31.324,45.557H92.857v9.524h9.524v19.048h-100v9.524h13.11l-7.41,33.333h-5.7v9.524h285.714v-9.524h-9.624L273.809,66.567z
			 M171.829,224.271c3.89,1.2,6.743,4.786,6.743,9.062v9.524h-19.519L171.829,224.271z M111.905,223.81h48.686l-13.095,19.048
			h-35.59V223.81H111.905z M17.843,285.714l7.41-33.333h1.881l7.41,33.333H17.843z M160.467,285.714H44.295l-7.41-33.333h130.981
			L160.467,285.714z M170.224,285.714l7.41-33.333h1.881l7.41,33.333H170.224z M243.519,147.619h22.49l0.91,42.857h-24.31
			L243.519,147.619z M242.405,200h24.719l1.114,52.381H241.29L242.405,200z M240.581,285.714l0.505-23.81h27.352l0.505,23.81
			H240.581z"/>
		<path style="fill:#333333;" d="M253.276,26.429C241.814,18.762,209.186,0,164.286,0C109.119,0,58.776,37.457,56.657,39.052
			l5.729,7.61c0.276-0.21,16.067-11.962,39.1-22.19l-12.89,25.781l8.519,4.262l17.71-35.414c5.914-2.148,12.138-4.076,18.571-5.638
			l-7.062,28.243l9.233,2.305l8.171-32.686c6.733-1.133,13.614-1.8,20.548-1.8c1.367,0,2.671,0.09,4.014,0.129l-3.967,27.767
			l9.429,1.348l4.081-28.552c10.419,0.957,20.033,2.895,28.61,5.371l-8.586,25.762l9.029,3.014l8.624-25.871
			c22.505,7.976,36.081,18.414,36.3,18.586l4.524,3.548l2.648-5.095c3.752-7.233,16.305-26.005,29.105-26.005V0
			C271.814,0,258.733,17.7,253.276,26.429z"/>
		<path style="fill:#333333;" d="M221.467,52.381c-1.662-0.024-41.967-0.076-87.986,24.367c-7.6,4.038-14.767,8.824-21.252,13.729
			h-0.324v0.248C93.286,104.863,80.419,119.882,79.7,120.73l7.262,6.162c0.148-0.176,10.143-11.819,24.938-23.986v20.905h9.524
			V95.557c5.19-3.743,10.729-7.329,16.519-10.405c5.895-3.133,11.695-5.81,17.348-8.157l4.252,42.519l9.476-0.948l-4.514-45.129
			c10.586-3.81,20.338-6.367,28.7-8.071l4.433,39.91l9.467-1.052L202.6,63.671c11.429-1.752,18.59-1.781,18.786-1.781
			L221.467,52.381z"/>
		<path style="fill:#65c0ba;" d="M235.714,76.19c-10.505,0-19.048-8.543-19.048-19.048s8.543-19.048,19.048-19.048
			s19.048,8.543,19.048,19.048S246.219,76.19,235.714,76.19z"/>
		<path style="fill:#65c0ba;" d="M273.809,76.19c-10.505,0-19.048-8.543-19.048-19.048s8.543-19.048,19.048-19.048
			s19.048,8.543,19.048,19.048S284.314,76.19,273.809,76.19z"/>
		<path style="fill:#65c0ba;" d="M254.762,100c-10.505,0-19.048-8.543-19.048-19.048s8.543-19.048,19.048-19.048
			s19.048,8.543,19.048,19.048S265.267,100,254.762,100z"/>
	</g>
</g>
<g>
</g>
<g>
</g>
<g>
</g>
<g>
</g>
<g>
</g>
<g>
</g>
<g>
</g>
<g>
</g>
<g>
</g>
<g>
</g>
<g>
</g>
<g>
</g>
<g>
</g>
<g>
</g>
<g>
</g>
</svg>
