<?xml version="1.0" encoding="iso-8859-1"?>
<!-- Generator: Adobe Illustrator 19.0.0, SVG Export Plug-In . SVG Version: 6.00 Build 0)  -->
<svg version="1.1" id="Layer_1" xmlns="http://www.w3.org/2000/svg" xmlns:xlink="http://www.w3.org/1999/xlink" x="0px" y="0px"
	 viewBox="0 0 293.694 293.694" style="enable-background:new 0 0 293.694 293.694;" xml:space="preserve">
<g>
	<g>
		<path style="fill:#333333;" d="M280.462,183.971c-6.048-3.629-13.557-3.629-19.6,0l-9.114,5.462c-3.024,1.814-6.771,1.814-9.8,0
			l-9.11-5.462c-6.048-3.629-13.557-3.629-19.6,0l-9.114,5.462c-3.024,1.814-6.771,1.814-9.8,0l-4.848-2.91l24.514-37.495
			c7.286-11.124,19.567-17.767,32.862-17.767c13.295,0,25.576,6.643,32.852,17.771l6.019,9.205l7.971-5.214l-6.019-9.205
			c-9.043-13.829-24.305-22.081-40.824-22.081s-31.781,8.252-40.824,22.081l-15.771,24.119l-40.676-62.21
			c-9.043-13.829-24.305-22.086-40.824-22.086s-31.78,8.259-40.823,22.088L0.01,209.609l7.971,5.214L48.41,152.99l2.929,1.757
			c6.048,3.629,13.557,3.629,19.6,0l9.114-5.462c3.024-1.814,6.771-1.814,9.8,0l9.11,5.462c3.024,1.814,6.414,2.719,9.8,2.719
			s6.776-0.905,9.8-2.719l9.114-5.462c3.024-1.814,6.771-1.814,9.8,0l9.11,5.462c6.043,3.624,13.552,3.629,19.6,0l2.929-1.757
			l15.467,23.652L141.652,242.3l-14.386-22.152c-9.043-13.914-24.338-22.219-40.924-22.219h-2.795
			c-16.586,0-31.881,8.305-40.91,22.214L0,285.814L7.99,291l15.743-24.243l3.795,2.276c6.048,3.629,13.557,3.629,19.6,0l9.114-5.462
			c3.024-1.814,6.771-1.814,9.8,0l9.11,5.462c6.048,3.629,13.557,3.629,19.6,0l9.114-5.462c3.024-1.814,6.771-1.814,9.8,0
			l9.11,5.462c3.024,1.814,6.414,2.719,9.8,2.719s6.776-0.905,9.8-2.719l3.8-2.276l15.743,24.248l7.99-5.186l-22.586-34.786
			l36.957-56.529l5.162,3.1c6.048,3.629,13.557,3.629,19.6,0l9.114-5.462c3.024-1.814,6.771-1.814,9.8,0l9.11,5.462
			c3.01,1.81,6.4,2.714,9.786,2.714s6.776-0.905,9.8-2.719l9.114-5.462c3.024-1.814,6.771-1.814,9.8,0l9.11,5.462
			c1.181,0.71,2.352,1.124,3.443,1.51l3.038-9.029c-0.533-0.19-1.081-0.352-1.581-0.652L280.462,183.971z M161.276,146.576
			c-3.024,1.814-6.771,1.814-9.8,0l-9.11-5.462c-6.048-3.629-13.557-3.629-19.6,0l-9.114,5.462c-3.024,1.814-6.771,1.814-9.8,0
			l-9.11-5.462c-6.048-3.629-13.557-3.629-19.6,0l-9.114,5.462c-3.024,1.814-6.776,1.814-9.8,0l-2.614-1.567l22.276-34.071
			c7.29-11.129,19.571-17.771,32.867-17.771s25.576,6.643,32.852,17.771l22.276,34.071L161.276,146.576z M137.467,260.862
			c-3.024,1.814-6.771,1.814-9.8,0l-9.11-5.462c-6.048-3.629-13.557-3.629-19.6,0l-9.114,5.462c-3.024,1.814-6.771,1.814-9.8,0
			l-9.11-5.462c-6.048-3.629-13.557-3.629-19.6,0l-9.114,5.462c-3.024,1.814-6.776,1.814-9.8,0l-3.505-2.105l21.71-33.433
			c7.267-11.195,19.571-17.876,32.924-17.876h2.795c13.348,0,25.657,6.681,32.924,17.876l21.705,33.433L137.467,260.862z"/>
		<rect x="280.186" y="97.929" style="fill:#333333;" width="9.524" height="19.048"/>
		<rect x="175.424" y="2.69" style="fill:#333333;" width="19.048" height="9.524"/>
		
			<rect x="188.839" y="52.691" transform="matrix(0.866 -0.5 0.5 0.866 -2.1503 106.8808)" style="fill:#333333;" width="19.047" height="9.524"/>
		
			<rect x="225.408" y="89.3" transform="matrix(0.4999 -0.8661 0.8661 0.4999 36.0252 250.5127)" style="fill:#333333;" width="19.048" height="9.524"/>
		<path style="fill:#65c0ba;" d="M289.709,83.405c-1.581,0.1-3.152,0.238-4.762,0.238c-39.448,0-71.429-31.981-71.429-71.429
			c0-3.238,0.29-6.4,0.71-9.524h75.481L289.709,83.405L289.709,83.405z"/>
	</g>
</g>
<g>
</g>
<g>
</g>
<g>
</g>
<g>
</g>
<g>
</g>
<g>
</g>
<g>
</g>
<g>
</g>
<g>
</g>
<g>
</g>
<g>
</g>
<g>
</g>
<g>
</g>
<g>
</g>
<g>
</g>
</svg>
