<?xml version="1.0" encoding="iso-8859-1"?>
<!-- Generator: Adobe Illustrator 19.0.0, SVG Export Plug-In . SVG Version: 6.00 Build 0)  -->
<svg version="1.1" id="Layer_1" xmlns="http://www.w3.org/2000/svg" xmlns:xlink="http://www.w3.org/1999/xlink" x="0px" y="0px"
	 viewBox="0 0 295.238 295.238" style="enable-background:new 0 0 295.238 295.238;" xml:space="preserve">
<g>
	<g>
		<path style="fill:#333333;" d="M242.662,81.781l-0.076-1.129l-9.505,0.605l0.081,1.186c0.081,1.224,0.171,2.448,0.171,3.7
			c0,17.086-5.814,33.895-16.371,47.329l-17.338,22.071c-11.057,14.076-17.552,31.395-18.538,49.219h-9.657v-23.81
			c0-10.233,5.11-18.59,11.581-29.176c9.69-15.843,21.752-35.571,21.752-70.824h-9.524c0,32.576-10.814,50.257-20.352,65.857
			c-6.967,11.39-12.981,21.229-12.981,34.143v23.81h-28.571v-23.81c0-12.914-6.014-22.752-12.981-34.148
			C110.814,131.21,100,113.524,100,80.952c0-48.548,38.952-67.467,47.595-71.067c6.486,2.786,31.433,15.019,42.338,42.352
			l8.843-3.524c-7.4-18.548-20.181-30.752-30.929-38.295c15.271,2.252,29.571,9.019,41.081,19.762l6.5-6.957
			C199.386,8.248,178.538,0,156.719,0h-18.195c-47.5,0-86.143,38.643-86.143,86.143c0,19.21,6.538,38.11,18.41,53.219l17.338,22.071
			c10.724,13.652,16.633,30.729,16.633,48.09v4.762v19.048h-9.524v9.524h8.562l-5.919,8.881c-1.729,2.59-2.643,5.61-2.643,8.724
			c0,6.605,4.105,12.252,9.89,14.576c1.752,11.41,11.552,20.2,23.443,20.2h38.095c11.89,0,21.69-8.79,23.443-20.2
			c5.786-2.324,9.89-7.967,9.89-14.576c0-3.114-0.914-6.133-2.643-8.724l-5.919-8.881H200v-9.524h-9.524v-19.048v-4.762
			c0-17.362,5.91-34.438,16.633-48.095l17.338-22.071c11.871-15.105,18.41-34.005,18.41-53.214
			C242.857,84.671,242.762,83.229,242.662,81.781z M95.614,155.543l-17.338-22.071c-10.557-13.433-16.371-30.243-16.371-47.329
			c0-38.552,28.648-70.452,65.752-75.757c-16.176,11.376-37.181,33.31-37.181,70.567c0,35.252,12.062,54.976,21.752,70.824
			c6.471,10.586,11.581,18.943,11.581,29.176v23.81h-9.657C113.167,186.938,106.671,169.619,95.614,155.543z M112.843,266.667
			h-1.881c-3.419,0-6.2-2.781-6.2-6.205c0-1.229,0.362-2.419,1.043-3.443l6.1-9.152l6.1,9.152c0.681,1.024,1.043,2.214,1.043,3.443
			C119.048,263.886,116.267,266.667,112.843,266.667z M184.271,266.667h-1.881c-3.419,0-6.2-2.781-6.2-6.205
			c0-1.229,0.362-2.419,1.043-3.443l6.1-9.152l6.1,9.152c0.681,1.024,1.043,2.214,1.043,3.443
			C190.476,263.886,187.695,266.667,184.271,266.667z M180.148,275.962c-1.91,5.648-7.195,9.752-13.481,9.752h-38.095
			c-6.286,0-11.571-4.105-13.481-9.752c7.605-1.1,13.481-7.595,13.481-15.5c0-3.114-0.914-6.133-2.643-8.724l-5.919-8.881h55.219
			l-5.919,8.881c-1.729,2.59-2.643,5.61-2.643,8.724C166.667,268.367,172.543,274.862,180.148,275.962z M180.952,233.333h-66.667
			v-19.048h66.667V233.333z"/>
		<path style="fill:#65c0ba;" d="M266.667,85.714h-57.143c-13.129,0-23.81-10.681-23.81-23.81c0-9.91,6.076-18.595,15.124-22.124
			c3.648-17.452,19.152-30.257,37.257-30.257c13.776,0,26.538,7.586,33.233,19.538c13.614,2.243,23.91,14.09,23.91,28.081
			C295.238,72.9,282.424,85.714,266.667,85.714z"/>
		<path style="fill:#65c0ba;" d="M80.952,228.571H23.81C10.681,228.571,0,217.89,0,204.762c0-9.91,6.076-18.595,15.124-22.124
			c3.648-17.452,19.152-30.257,37.257-30.257c13.776,0,26.538,7.586,33.233,19.538c13.614,2.243,23.91,14.09,23.91,28.081
			C109.524,215.757,96.71,228.571,80.952,228.571z"/>
	</g>
</g>
<g>
</g>
<g>
</g>
<g>
</g>
<g>
</g>
<g>
</g>
<g>
</g>
<g>
</g>
<g>
</g>
<g>
</g>
<g>
</g>
<g>
</g>
<g>
</g>
<g>
</g>
<g>
</g>
<g>
</g>
</svg>
