<?xml version="1.0" encoding="iso-8859-1"?>
<!-- Generator: Adobe Illustrator 19.0.0, SVG Export Plug-In . SVG Version: 6.00 Build 0)  -->
<svg version="1.1" id="Layer_1" xmlns="http://www.w3.org/2000/svg" xmlns:xlink="http://www.w3.org/1999/xlink" x="0px" y="0px"
	 viewBox="0 0 295.241 295.241" style="enable-background:new 0 0 295.241 295.241;" xml:space="preserve">
<g>
	<g>
		<path style="fill:#333333;" d="M54.762,214.286c6.567,0,11.905-5.338,11.905-11.905s-5.338-11.905-11.905-11.905
			s-11.905,5.338-11.905,11.905C42.857,208.948,48.195,214.286,54.762,214.286z M54.762,200c1.31,0,2.381,1.071,2.381,2.381
			s-1.071,2.381-2.381,2.381s-2.381-1.071-2.381-2.381S53.452,200,54.762,200z"/>
		<path style="fill:#333333;" d="M66.667,202.381c0,6.567,5.338,11.905,11.905,11.905s11.905-5.338,11.905-11.905
			s-5.338-11.905-11.905-11.905S66.667,195.814,66.667,202.381z M78.571,200c1.31,0,2.381,1.071,2.381,2.381
			s-1.071,2.381-2.381,2.381s-2.381-1.071-2.381-2.381C76.191,201.071,77.262,200,78.571,200z"/>
		<path style="fill:#333333;" d="M252.381,202.381c0-6.567-5.338-11.905-11.905-11.905s-11.905,5.338-11.905,11.905
			s5.338,11.905,11.905,11.905S252.381,208.948,252.381,202.381z M240.476,204.762c-1.31,0-2.381-1.071-2.381-2.381
			s1.071-2.381,2.381-2.381s2.381,1.071,2.381,2.381C242.857,203.69,241.786,204.762,240.476,204.762z"/>
		<path style="fill:#333333;" d="M228.571,202.381c0-6.567-5.338-11.905-11.905-11.905s-11.905,5.338-11.905,11.905
			s5.338,11.905,11.905,11.905S228.571,208.948,228.571,202.381z M216.667,204.762c-1.31,0-2.381-1.071-2.381-2.381
			s1.071-2.381,2.381-2.381s2.381,1.071,2.381,2.381C219.048,203.69,217.976,204.762,216.667,204.762z"/>
		<path style="fill:#333333;" d="M280.952,71.429c-3.7,0-7.043,1.448-9.581,3.762l-9.467-6.31V13.71
			c0-7.557-6.148-13.71-13.71-13.71H47.043c-7.562,0-13.71,6.152-13.71,13.71v55.171l-9.467,6.31
			c-2.538-2.314-5.881-3.762-9.581-3.762C6.41,71.429,0,77.838,0,85.714v23.81c0,7.876,6.41,14.286,14.286,14.286
			s14.286-6.41,14.286-14.286V100h4.762v114.286c-5.252,0-9.524,4.271-9.524,9.524v19.048c0,5.252,4.271,9.524,9.524,9.524h4.762
			v23.81c0,10.505,8.543,19.048,19.048,19.048s19.048-8.543,19.048-19.048v-23.81h142.857v23.81
			c0,10.505,8.543,19.048,19.048,19.048s19.048-8.543,19.048-19.048v-23.81h4.762c5.252,0,9.524-4.271,9.524-9.524V223.81
			c0-5.252-4.271-9.524-9.524-9.524V100h4.762v9.524c0,7.876,6.41,14.286,14.286,14.286s14.286-6.41,14.286-14.286v-23.81
			C295.238,77.838,288.828,71.429,280.952,71.429z M252.381,180.952H207.9c-3.819,0-7.252,2.271-8.752,5.776l-11.81,27.557H107.9
			l-11.805-27.552c-1.505-3.51-4.938-5.781-8.757-5.781H42.857v-9.524h209.524V180.952z M42.857,42.857h209.524v119.048H42.857
			V42.857z M47.043,9.524h201.152c2.305,0,4.186,1.876,4.186,4.186v19.624H42.857V13.71C42.857,11.4,44.738,9.524,47.043,9.524z
			 M19.048,109.524c0,2.624-2.133,4.762-4.762,4.762s-4.762-2.138-4.762-4.762v-23.81c0-2.624,2.133-4.762,4.762-4.762
			s4.762,2.138,4.762,4.762V109.524z M28.571,90.476v-4.762c0-0.71-0.11-1.39-0.21-2.071l4.971-3.319v10.152H28.571z
			 M42.857,202.381v-11.905h11.905h23.81h8.767l10.205,23.81H78.571h-23.81H42.857V202.381z M66.667,276.19
			c0,5.252-4.271,9.524-9.524,9.524s-9.524-4.271-9.524-9.524v-23.81h19.048C66.667,252.38,66.667,276.19,66.667,276.19z
			 M247.619,276.19c0,5.252-4.271,9.524-9.524,9.524s-9.524-4.271-9.524-9.524v-23.81h19.048V276.19z M261.905,242.857h-4.762
			h-38.095H76.191H38.095h-4.762V223.81h228.571v19.047H261.905z M240.476,214.286h-23.81h-18.971l10.205-23.81h8.767h23.81h11.905
			v11.905v11.905H240.476z M261.905,90.476V80.324l4.971,3.314c-0.1,0.686-0.21,1.367-0.21,2.076v4.762H261.905z M285.714,109.524
			c0,2.624-2.133,4.762-4.762,4.762s-4.762-2.138-4.762-4.762v-23.81c0-2.624,2.133-4.762,4.762-4.762s4.762,2.138,4.762,4.762
			V109.524z"/>
		
			<rect x="66.615" y="97.621" transform="matrix(0.6357 -0.7719 0.7719 0.6357 -35.6625 129.1909)" style="fill:#333333;" width="104.865" height="9.519"/>
		
			<rect x="114.234" y="97.621" transform="matrix(0.6357 -0.7719 0.7719 0.6357 -18.3162 165.949)" style="fill:#333333;" width="104.865" height="9.519"/>
		<rect x="95.238" y="0" style="fill:#65c0ba;" width="104.762" height="42.857"/>
	</g>
</g>
<g>
</g>
<g>
</g>
<g>
</g>
<g>
</g>
<g>
</g>
<g>
</g>
<g>
</g>
<g>
</g>
<g>
</g>
<g>
</g>
<g>
</g>
<g>
</g>
<g>
</g>
<g>
</g>
<g>
</g>
</svg>
