<?xml version="1.0" encoding="iso-8859-1"?>
<!-- Generator: Adobe Illustrator 19.0.0, SVG Export Plug-In . SVG Version: 6.00 Build 0)  -->
<svg version="1.1" id="Layer_1" xmlns="http://www.w3.org/2000/svg" xmlns:xlink="http://www.w3.org/1999/xlink" x="0px" y="0px"
	 viewBox="0 0 295.241 295.241" style="enable-background:new 0 0 295.241 295.241;" xml:space="preserve">
<g>
	<g>
		<polygon style="fill:#65c0ba;" points="138.095,52.383 219.048,209.526 138.095,209.526 		"/>
		<path style="fill:#333333;" d="M266.667,285.716c-10.505,0-19.048-8.543-19.048-19.048h-9.524
			c0,10.505-8.543,19.048-19.048,19.048s-19.048-8.543-19.048-19.048h-9.524c0,10.505-8.543,19.048-19.048,19.048
			s-19.048-8.543-19.048-19.048h-9.524c0,10.505-8.543,19.048-19.048,19.048s-19.048-8.543-19.048-19.048h-9.524
			c0,10.505-8.543,19.048-19.048,19.048s-19.048-8.543-19.048-19.048h-9.524c0,10.505-8.543,19.048-19.048,19.048
			s-19.048-8.543-19.048-19.048H0c0,15.757,12.814,28.571,28.571,28.571c9.924,0,18.686-5.086,23.81-12.795
			c5.124,7.71,13.886,12.795,23.81,12.795s18.686-5.086,23.81-12.795c5.124,7.71,13.886,12.795,23.81,12.795
			s18.686-5.086,23.81-12.795c5.124,7.71,13.886,12.795,23.81,12.795s18.686-5.086,23.81-12.795
			c5.124,7.71,13.886,12.795,23.81,12.795s18.686-5.086,23.81-12.795c5.124,7.71,13.886,12.795,23.809,12.795
			c15.757,0,28.571-12.814,28.571-28.571h-9.524C285.714,277.173,277.171,285.716,266.667,285.716z"/>
		<rect x="228.571" y="233.335" style="fill:#333333;" width="9.524" height="9.524"/>
		<path style="fill:#333333;" d="M33.333,133.335h51.352L44.21,204.764h84.362v14.286H26.11l18.367,42.857h229.409l-12.181-28.424
			c-3.757-8.771-12.343-14.433-21.886-14.433H138.095V52.383h-9.524v3.505l-21.081,37.2c-2.357-2.438-5.167-4.419-8.329-5.671
			c-3.638-17.462-19.148-30.271-37.257-30.271c-13.781,0-26.543,7.586-33.233,19.538c-13.61,2.248-23.91,14.09-23.91,28.081
			C4.762,120.521,17.576,133.335,33.333,133.335z M252.952,237.231l6.49,15.152H50.757l-4.081-9.524h172.371v-9.524H42.595
			l-2.043-4.762h199.267C245.543,228.573,250.695,231.973,252.952,237.231z M128.571,176.192H90.476v9.524h38.095v9.524H60.552
			l68.019-120.033V176.192z M32.062,85.864l2.8-0.186l1.19-2.543c4.7-10.005,14.843-16.467,25.852-16.467
			c14.362,0,26.533,10.743,28.319,24.986l0.41,3.267l3.195,0.776c3.571,0.862,6.681,3.133,8.652,6.233l-12.4,21.881H33.333
			c-10.505,0-19.048-8.543-19.048-19.048C14.286,94.835,22.095,86.535,32.062,85.864z"/>
		<path style="fill:#333333;" d="M214.286,76.192h57.143c13.129,0,23.81-10.681,23.81-23.81c0-9.91-6.076-18.595-15.124-22.124
			c-3.648-17.451-19.153-30.256-37.258-30.256c-13.781,0-26.543,7.586-33.233,19.538c-13.61,2.248-23.91,14.09-23.91,28.081
			C185.714,63.378,198.529,76.192,214.286,76.192z M213.014,28.721l2.8-0.186l1.19-2.543c4.7-10.005,14.843-16.467,25.852-16.467
			c14.362,0,26.533,10.743,28.319,24.986l0.41,3.262l3.195,0.776c6.438,1.552,10.933,7.243,10.933,13.833
			c0,7.876-6.41,14.286-14.286,14.286h-57.143c-10.505,0-19.048-8.543-19.048-19.048C195.238,37.692,203.048,29.392,213.014,28.721z
			"/>
	</g>
</g>
<g>
</g>
<g>
</g>
<g>
</g>
<g>
</g>
<g>
</g>
<g>
</g>
<g>
</g>
<g>
</g>
<g>
</g>
<g>
</g>
<g>
</g>
<g>
</g>
<g>
</g>
<g>
</g>
<g>
</g>
</svg>
